<?xml version="1.0" encoding="UTF-8" standalone="no"?>
<!-- Created with Inkscape (http://www.inkscape.org/) -->

<svg
   width="210mm"
   height="297mm"
   viewBox="0 0 793.70081 1122.5197"
   version="1.1"
   id="svg5"
   inkscape:version="1.1.2 (1:1.1+202202050950+0a00cf5339)"
   sodipodi:docname="keycap_icons_xda.svg"
   xmlns:inkscape="http://www.inkscape.org/namespaces/inkscape"
   xmlns:sodipodi="http://sodipodi.sourceforge.net/DTD/sodipodi-0.dtd"
   xmlns:xlink="http://www.w3.org/1999/xlink"
   xmlns="http://www.w3.org/2000/svg"
   xmlns:svg="http://www.w3.org/2000/svg">
  <sodipodi:namedview
     id="namedview7"
     pagecolor="#ffffff"
     bordercolor="#666666"
     borderopacity="1.0"
     inkscape:pageshadow="2"
     inkscape:pageopacity="0.0"
     inkscape:pagecheckerboard="0"
     inkscape:document-units="mm"
     showgrid="true"
     inkscape:zoom="1.096075"
     inkscape:cx="238.57856"
     inkscape:cy="63.408068"
     inkscape:window-width="1874"
     inkscape:window-height="1016"
     inkscape:window-x="1966"
     inkscape:window-y="27"
     inkscape:window-maximized="1"
     inkscape:current-layer="g7349">
    <inkscape:grid
       type="xygrid"
       id="grid7547" />
  </sodipodi:namedview>
  <defs
     id="defs2">
    <symbol
       id="lemon-o"
       viewBox="0 0 10000 10000">
      <title
         id="title1990">lemon-o</title>
      <path
         d="m 372.26875,218.54583 c 0,-12.43541 -2.38125,-44.97916 -6.61458,-55.5625 -5.02709,-12.7 -7.9375,-19.84375 -7.9375,-34.13125 0,-12.17083 2.64583,-24.07708 2.64583,-35.98333 0,-5.027083 -0.26458,-10.31875 -2.64583,-14.552083 -1.05834,-0.264584 -2.38125,-0.264584 -3.43959,-0.264584 -10.31875,0 -20.6375,2.38125 -30.95625,2.38125 -31.48541,0 -61.38333,-12.7 -92.86875,-12.7 -24.60625,0 -48.41875,9.260417 -71.17291,18.25625 C 141.2875,93.133333 121.44375,101.6 105.83333,113.24167 52.3875,153.72292 33.866667,227.80625 33.866667,291.57083 c 0,21.43125 6.614583,42.33334 6.614583,63.76459 0,12.17083 -5.820833,23.28333 -5.820833,34.925 0,7.40833 4.233333,13.49375 12.170833,13.49375 12.964583,0 25.4,-5.82084 38.629167,-5.82084 30.162503,0 59.531253,8.20209 89.693753,8.20209 23.54791,0 53.18125,-1.85209 75.14166,-9.525 69.58542,-24.60625 121.97292,-105.03959 121.97292,-178.06459 z m 33.86667,-0.52916 c 0,88.10625 -61.11875,180.975 -144.72709,210.60833 -26.19375,9.26042 -58.7375,11.64167 -86.25416,11.64167 -30.1625,0 -59.79584,-7.67292 -89.693753,-7.67292 -12.7,0 -25.4,7.67292 -38.629167,7.67292 -26.19375,0 -46.0375,-23.54792 -46.0375,-48.68334 0,-12.43541 5.8208333,-23.54791 5.8208333,-35.71875 C 6.6145833,334.43333 0,313.53125 0,291.83542 0,216.69375 23.01875,133.61458 85.460417,86.254167 c 17.991663,-13.758334 40.481253,-23.547917 61.383333,-31.75 26.9875,-10.847917 54.23958,-20.6375 83.60833,-20.6375 31.48542,0 61.38334,12.7 92.33959,12.7 10.05416,0 20.10833,-2.645834 30.42708,-2.645834 30.1625,0 41.01042,21.43125 41.01042,48.947917 0,11.90625 -2.64584,24.07708 -2.64584,35.98333 0,9.525 2.38125,13.22917 5.55625,21.69584 6.08542,15.34583 8.99584,50.53541 8.99584,67.46875 z"
         id="path1992"
         style="stroke-width:0.264583" />
    </symbol>
    <symbol
       id="undo"
       viewBox="0 0 10000 10000">
      <title
         id="title3464">undo</title>
      <path
         d="m 406.4,237.06667 c 0,111.91875 -91.28125,203.2 -203.2,203.2 -60.58958,0 -117.739583,-26.72292 -156.36875,-73.28959 C 44.185417,363.5375 44.45,358.51042 47.360417,355.6 l 36.247916,-36.5125 c 1.852084,-1.5875 4.233334,-2.38125 6.614584,-2.38125 2.38125,0.26458 4.7625,1.32292 6.085416,3.175 25.929167,33.60208 64.822917,52.65208 106.891667,52.65208 74.6125,0 135.46667,-60.85416 135.46667,-135.46666 C 338.66667,162.45417 277.8125,101.6 203.2,101.6 c -34.66042,0 -67.46875,13.22917 -92.075,36.24792 l 36.24792,36.5125 c 5.02708,4.7625 6.35,12.17083 3.70416,18.25625 -2.64583,6.35 -8.73125,10.58333 -15.61041,10.58333 H 16.933333 C 7.6729167,203.2 0,195.52708 0,186.26667 V 67.733333 C 0,60.854167 4.2333333,54.76875 10.583333,52.122917 16.66875,49.477083 24.077083,50.8 28.839583,55.827083 l 34.395834,34.13125 C 100.54167,54.76875 151.07708,33.866667 203.2,33.866667 c 111.91875,0 203.2,91.281253 203.2,203.200003 z"
         id="path3466"
         style="stroke-width:0.264583" />
    </symbol>
    <symbol
       id="scissors"
       viewBox="0 0 10000 10000">
      <title
         id="title2744">scissors</title>
      <path
         d="m 254,237.06667 c 9.26042,0 16.93333,7.67291 16.93333,16.93333 0,9.26042 -7.67291,16.93333 -16.93333,16.93333 -9.26042,0 -16.93333,-7.67291 -16.93333,-16.93333 0,-9.26042 7.67291,-16.93333 16.93333,-16.93333 z M 333.375,254 467.51875,359.30417 c 4.7625,3.43958 7.14375,9.26041 6.61458,14.81666 -0.79375,5.82084 -4.23333,10.84792 -9.26041,13.49375 l -33.86667,16.93334 c -2.38125,1.32291 -5.02708,1.85208 -7.67292,1.85208 -2.91041,0 -5.82083,-0.79375 -8.20208,-2.11667 l -182.5625,-102.39375 -29.10417,17.4625 c -1.05833,0.52917 -2.11666,1.05834 -3.175,1.32292 2.38125,8.20208 3.43959,16.93333 2.64584,25.66458 -2.38125,27.25209 -20.6375,53.18125 -49.74167,71.70209 -22.48958,14.2875 -48.41875,22.225 -73.289583,22.225 -23.8125,0 -43.920834,-7.14375 -58.7375,-20.6375 C 6.0854167,405.60625 -1.5875,385.49792 0.26458333,364.86042 2.6458333,337.87292 20.902083,311.67917 49.741667,293.15833 c 22.489583,-14.2875 48.683333,-22.225 73.554163,-22.225 14.81667,0 28.31042,2.91042 39.95209,8.20209 1.5875,-2.38125 3.43958,-4.23334 5.82083,-5.82084 L 201.34792,254 169.06875,234.68542 c -2.38125,-1.5875 -4.23333,-3.43959 -5.82083,-5.82084 -11.64167,5.29167 -25.13542,8.20209 -39.95209,8.20209 -24.87083,0 -51.06458,-7.9375 -73.554163,-22.225 C 20.902083,196.32083 2.6458333,170.12708 0.26458333,143.13958 -1.5875,122.50208 6.0854167,102.39375 21.166667,88.635417 c 14.816666,-13.758334 34.925,-20.902084 58.7375,-20.902084 24.870833,0 50.800003,7.9375 73.289583,22.225 29.10417,18.256247 47.36042,44.449997 49.74167,71.702087 0.79375,8.73125 -0.26459,17.4625 -2.64584,25.66458 1.05834,0.26458 2.11667,0.79375 3.175,1.32292 l 29.10417,17.4625 182.5625,-102.39375 c 2.38125,-1.32292 5.29167,-2.11667 8.20208,-2.11667 2.64584,0 5.29167,0.52917 7.67292,1.85208 l 33.86667,16.93334 c 5.02708,2.64583 8.46666,7.67291 9.26041,13.49375 0.52917,5.55625 -1.85208,11.37708 -6.61458,14.81666 z M 153.19375,185.20833 c 16.13958,-14.81666 6.08542,-41.53958 -22.48958,-59.53125 -16.13959,-10.31875 -34.925003,-15.61041 -50.800003,-15.61041 -12.170834,0 -23.01875,3.175 -29.897917,9.525 -16.139583,14.81666 -6.085417,41.53958 22.489583,59.53125 16.139584,10.31875 34.660417,15.61041 50.799997,15.61041 12.17084,0 23.01875,-3.175 29.89792,-9.525 z m -22.48958,197.11459 c 28.575,-17.99167 38.62916,-44.71459 22.48958,-59.53125 -6.87917,-6.35 -17.72708,-9.525 -29.89792,-9.525 -16.13958,0 -34.660413,5.29166 -50.799997,15.61041 -28.575,17.99167 -38.629166,44.71459 -22.489583,59.53125 6.879167,6.35 17.727083,9.525 29.897917,9.525 15.875,0 34.660413,-5.29166 50.800003,-15.61041 z M 177.8,220.13333 l 25.4,15.34584 v -2.91042 c 0,-6.08542 3.43958,-11.64167 8.73125,-14.81667 l 3.70417,-2.11666 -20.90209,-12.43542 -6.87916,6.87917 c -2.11667,2.11666 -3.70417,4.23333 -5.82084,6.08541 -0.79375,0.79375 -1.32291,1.05834 -1.85208,1.5875 z m 59.26667,59.26667 25.4,8.46667 194.73333,-152.4 -33.86667,-16.93334 -203.2,114.03542 v 29.89792 l -42.33333,25.4 2.38125,2.11666 c 0.52917,0.79375 1.05833,1.05834 1.85208,1.5875 2.11667,2.11667 3.70417,4.23334 5.82084,6.35 L 194.73333,304.8 Z M 423.33333,389.46667 457.2,372.53333 l -137.58333,-107.95 -46.83125,36.5125 c -0.79375,1.05834 -2.11667,1.32292 -3.43959,1.85209 z"
         id="path2746"
         style="stroke-width:0.264583" />
    </symbol>
  </defs>
  <g
     inkscape:label="Layer 1"
     inkscape:groupmode="layer"
     id="layer1">
    <g
       id="g7349">
      <g
         id="g9487"
         transform="translate(-3.7795277,-3.7795258)"
         inkscape:export-filename="/media/stone/lexar/test.png"
         inkscape:export-xdpi="96"
         inkscape:export-ydpi="96">
        <rect
           style="fill:none;stroke:#000000;stroke-width:0.911348;stroke-miterlimit:4;stroke-dasharray:none"
           id="rect6410-5"
           width="48.222511"
           height="48.222511"
           x="97.302719"
           y="36.501888"
           inkscape:export-filename="/media/stone/lexar/test.png"
           inkscape:export-xdpi="96"
           inkscape:export-ydpi="96" />
        <use
           xlink:href="#undo"
           style="fill:#000000;stroke:#000000"
           transform="matrix(0.46838648,0,0,0.46838648,113.85984,-25.207168)"
           id="use7768"
           x="0"
           y="0"
           width="100%"
           height="100%"
           inkscape:export-filename="/media/stone/lexar/test.png"
           inkscape:export-xdpi="96"
           inkscape:export-ydpi="96" />
      </g>
      <g
         id="g9483"
         transform="translate(-3.7795271,-3.7795283)"
         inkscape:export-filename="/media/stone/lexar/test.png"
         inkscape:export-xdpi="96"
         inkscape:export-ydpi="96">
        <g
           id="g7551"
           transform="translate(-18.608626,4.7244002)"
           inkscape:export-filename="/media/stone/lexar/test.png"
           inkscape:export-xdpi="96"
           inkscape:export-ydpi="96">
          <rect
             style="fill:none;stroke:#000000;stroke-width:0.911348;stroke-miterlimit:4;stroke-dasharray:none"
             id="rect6410"
             width="48.222511"
             height="48.222511"
             x="51.777485"
             y="31.777491" />
        </g>
        <g
           id="g9477">
          <path
             d="m 64.160493,53.732664 c -0.679324,-0.682697 -1.605668,-0.852777 -2.214796,-0.498437 -1.742341,1.0151 -5.352224,-1.568884 -9.482819,2.561708 -4.130594,4.130597 -1.54661,7.741494 -2.561712,9.482822 -0.35434,0.609128 -0.184628,1.535472 0.498439,2.214796 0.679321,0.683031 1.605669,0.852776 2.214796,0.498436 1.742341,-1.0151 5.352224,1.568884 9.482819,-2.561708 4.130593,-4.130597 1.546609,-7.741492 2.561709,-9.482821 0.355352,-0.608792 0.183244,-1.535476 -0.498436,-2.214796 z m -7.289284,2.5445 c -1.494979,0.377964 -3.550152,2.433136 -3.927103,3.928116 -0.0621,0.246349 -0.281449,0.377964 -0.554458,0.377964 -0.04323,0 -0.08754,-0.0053 -0.131814,-0.0158 -0.258635,-0.04155 -0.433781,-0.335147 -0.361901,-0.625367 0.477853,-1.899265 2.811437,-4.231838 4.711039,-4.711042 0.292112,-0.06854 0.58213,0.103337 0.656036,0.392141 0.0739,0.289543 -0.101578,0.579769 -0.391799,0.654009 z"
             id="path7989"
             style="stroke-width:0.0337467"
             inkscape:export-filename="/media/stone/lexar/test.png"
             inkscape:export-xdpi="96"
             inkscape:export-ydpi="96" />
        </g>
      </g>
      <g
         id="g9491"
         inkscape:export-filename="/media/stone/lexar/test.png"
         inkscape:export-xdpi="96"
         inkscape:export-ydpi="96">
        <rect
           style="fill:none;stroke:#000000;stroke-width:0.911348;stroke-miterlimit:4;stroke-dasharray:none"
           id="rect6410-92"
           width="48.222511"
           height="48.222511"
           x="157.65704"
           y="32.722363" />
        <path
           d="m 186.09937,50.696779 c 0.84801,-0.847411 2.22041,-0.847411 3.06842,0 0.21275,0.211853 0.21275,0.555253 0,0.767105 l -8.47112,8.471117 c 0.14384,0.377559 0.22474,0.785084 0.22474,1.213584 0,1.854836 -1.50125,3.356083 -3.35608,3.356083 -1.85364,0 -3.35609,-1.501247 -3.35609,-3.356083 0,-1.854837 1.50245,-3.383053 3.35609,-3.383053 0.42849,0 0.83601,0.107874 1.21357,0.251706 l 1.15666,-1.210588 -1.15666,-1.156649 c -0.37756,0.143832 -0.78508,0.224736 -1.21357,0.224736 -1.85364,0 -3.35609,-1.501248 -3.35609,-3.356083 0,-1.853638 1.50245,-3.356085 3.35609,-3.356085 1.85483,0 3.35608,1.502447 3.35608,3.356085 0,0.4285 -0.0809,0.836024 -0.22474,1.213584 l 1.15665,1.15665 z m -7.09572,1.794906 c 0,-0.767404 -0.64426,-1.438323 -1.43832,-1.438323 -0.79438,0 -1.43833,0.670919 -1.43833,1.438323 0,0.821042 0.64395,1.438321 1.43833,1.438321 0.79406,0 1.43832,-0.617279 1.43832,-1.438321 z m -1.43832,10.095222 c 0.79406,0 1.43832,-0.644249 1.43832,-1.438322 0,-0.794074 -0.64426,-1.438322 -1.43832,-1.438322 -0.79438,0 -1.43833,0.644248 -1.43833,1.438322 0,0.794073 0.64395,1.438322 1.43833,1.438322 z m 4.99217,-3.158315 1.91776,-1.917763 4.69253,4.692525 c 0.21275,0.212752 0.21275,0.554353 0,0.767105 -0.84801,0.848011 -2.22041,0.848011 -3.06842,0 z"
           id="path8287"
           style="stroke-width:0.029965" />
      </g>
      <g
         id="g9495"
         inkscape:export-filename="/media/stone/lexar/test.png"
         inkscape:export-xdpi="96"
         inkscape:export-ydpi="96">
        <rect
           style="fill:none;stroke:#000000;stroke-width:0.911348;stroke-miterlimit:4;stroke-dasharray:none"
           id="rect6410-6"
           width="48.222511"
           height="48.222511"
           x="221.79091"
           y="32.722363" />
        <path
           d="m 247.79193,52.109211 v -0.472443 c 0,-0.782777 -0.63484,-1.41732 -1.41732,-1.41732 h -1.67127 c -0.32775,-0.564272 -0.93897,-0.944884 -1.63582,-0.944884 -0.69685,0 -1.30807,0.380612 -1.63583,0.944884 h -1.67126 c -0.78278,0 -1.41732,0.634543 -1.41732,1.41732 v 9.448817 c 0,0.78248 0.63454,1.417324 1.41732,1.417324 l 4.25197,2.8e-5 v -8.031522 c 0,-1.30512 1.05709,-2.362204 2.36221,-2.362204 z m -4.72441,-0.236223 c -0.38977,0 -0.70867,-0.317421 -0.70867,-0.70866 0,-0.39124 0.3189,-0.70866 0.70867,-0.70866 0.38976,0 0.70866,0.31742 0.70866,0.70866 0,0.391239 -0.31595,0.70866 -0.70866,0.70866 z m 7.55905,1.181104 v 2.834647 h 2.83465 z m -0.94488,2.834647 v -2.834647 h -3.30708 c -0.78248,0 -1.41733,0.634843 -1.41733,1.417323 v 8.503934 c 0,0.782776 0.63455,1.417324 1.41733,1.417324 h 5.66928 c 0.78278,0 1.41733,-0.634548 1.41733,-1.417324 v -6.141731 h -2.83435 c -0.51999,0 -0.94518,-0.425195 -0.94518,-0.944879 z"
           id="path8296"
           style="stroke-width:0.0295275" />
      </g>
      <g
         id="g9499"
         inkscape:export-filename="/media/stone/lexar/test.png"
         inkscape:export-xdpi="96"
         inkscape:export-ydpi="96">
        <rect
           style="fill:none;stroke:#000000;stroke-width:0.911348;stroke-miterlimit:4;stroke-dasharray:none"
           id="rect6410-2"
           width="48.222511"
           height="48.222511"
           x="285.92477"
           y="32.722363" />
        <path
           d="m 302.93051,52.474718 c 0,-0.438542 0.56983,-0.610906 0.81354,-0.269231 l 2.73922,4.107873 v -3.838642 c 0,-0.438542 0.569,-0.610906 0.81325,-0.269231 l 2.7395,4.107873 v -3.838642 c 0,-0.438542 0.569,-0.610906 0.81325,-0.269231 l 2.73951,4.107873 v -3.838642 c 0,-0.438542 0.569,-0.610906 0.81325,-0.269231 l 3.59438,5.415173 c 0.39414,0.591201 -0.0277,1.357262 -0.7383,1.357262 h -14.3276 z m 15.09921,7.391394 c 0.49128,0 0.8882,0.421889 0.8882,0.888188 0,0.51626 -0.39692,0.888189 -0.8882,0.888189 h -15.9874 c -0.49043,0 -0.88818,-0.371929 -0.88818,-0.888189 0,-0.466299 0.39775,-0.888188 0.88818,-0.888188 z"
           id="path8305"
           style="stroke-width:0.0277559" />
      </g>
      <g
         id="g9503"
         inkscape:export-filename="/media/stone/lexar/test.png"
         inkscape:export-xdpi="96"
         inkscape:export-ydpi="96">
        <rect
           style="fill:none;stroke:#000000;stroke-width:0.911348;stroke-miterlimit:4;stroke-dasharray:none"
           id="rect6410-9"
           width="48.222511"
           height="48.222511"
           x="350.05862"
           y="32.722363" />
        <path
           d="m 381.22611,52.55128 -2.83127,-2.831271 c -0.23284,-0.23217 -0.74577,-0.445444 -1.11698,-0.445444 h -8.50731 c -1.19291,0 -2.15973,0.966817 -2.15973,2.159729 v 10.798648 c 0,1.192914 0.96682,2.15973 2.15973,2.15973 h 10.79864 c 1.19292,0 2.15974,-0.966816 2.15974,-2.15973 v -8.50731 c 0,-0.371203 -0.2126,-0.884139 -0.50282,-1.174352 z m -7.05623,9.681662 c -1.19258,0 -2.15973,-0.967153 -2.15973,-2.159729 0,-1.192576 0.96715,-2.15973 2.15973,-2.15973 1.19257,0 2.15972,0.967154 2.15972,2.15973 0,1.192576 -0.9685,2.159729 -2.15972,2.159729 z m 3.23959,-7.019121 c 0,0.296963 -0.24297,0.539933 -0.53993,0.539933 h -7.55906 c -0.29831,0 -0.53993,-0.24297 -0.53993,-0.539933 v -3.239595 c 0,-0.296962 0.24162,-0.539932 0.53993,-0.539932 h 7.55906 c 0.29696,0 0.53993,0.24297 0.53993,0.539932 z"
           id="path8314"
           style="stroke-width:0.0337458" />
      </g>
      <g
         id="g9507"
         transform="translate(1.5230167e-5)"
         inkscape:export-filename="/media/stone/lexar/test.png"
         inkscape:export-xdpi="96"
         inkscape:export-ydpi="96">
        <rect
           style="fill:none;stroke:#000000;stroke-width:0.911348;stroke-miterlimit:4;stroke-dasharray:none"
           id="rect6410-8"
           width="48.222511"
           height="48.222511"
           x="414.19247"
           y="32.722363" />
        <path
           d="m 444.91787,56.846429 c -0.52175,0 -0.94488,0.422539 -0.94488,0.94488 0,1.563186 -1.27146,2.83464 -2.83464,2.83464 h -4.7244 v -1.1811 c 0,-0.279596 -0.1647,-0.533267 -0.42017,-0.647833 -0.25601,-0.111024 -0.55424,-0.06673 -0.76388,0.122244 l -2.3622,2.125979 c -0.14793,0.132874 -0.23327,0.324803 -0.23327,0.52559 0,0.200787 0.0854,0.392126 0.23439,0.526771 l 2.3622,2.12598 c 0.13175,0.119882 0.30301,0.18189 0.47427,0.18189 0.0978,0 0.19533,-0.0203 0.28807,-0.06089 0.25524,-0.113327 0.42059,-0.367263 0.42059,-0.647775 v -1.1811 h 4.7244 c 2.60491,0 4.7244,-2.119484 4.7244,-4.724399 0,-0.522637 -0.42225,-0.94488 -0.94488,-0.94488 z m -9.4488,-3.77952 h 4.69783 l 0.0266,1.1811 c 0,0.279596 0.1647,0.533267 0.42017,0.647833 0.0936,0.04016 0.19105,0.06082 0.26191,0.06082 0.17161,0 0.34164,-0.06274 0.47451,-0.181771 l 2.3622,-2.12598 c 0.17509,-0.134173 0.26072,-0.326102 0.26072,-0.553464 0,-0.227361 -0.0854,-0.392125 -0.23439,-0.52677 l -2.3622,-2.12598 c -0.20808,-0.186378 -0.50757,-0.232529 -0.76268,-0.120886 -0.25489,0.140906 -0.44682,0.394605 -0.44682,0.674231 l 0.0266,1.1811 h -4.7244 c -2.60492,0 -4.7244,2.120075 -4.7244,4.7244 0,0.522341 0.42313,0.94488 0.94488,0.94488 0.52175,0 0.94488,-0.422539 0.94488,-0.94488 0,-1.562004 1.27264,-2.83464 2.83464,-2.83464 z"
           id="path8323"
           style="stroke-width:0.0295275" />
      </g>
      <g
         id="g9512"
         inkscape:export-filename="/media/stone/lexar/test.png"
         inkscape:export-xdpi="96"
         inkscape:export-ydpi="96">
        <rect
           style="fill:none;stroke:#000000;stroke-width:0.911348;stroke-miterlimit:4;stroke-dasharray:none"
           id="rect6410-5-0"
           width="48.222511"
           height="48.222511"
           x="29.389332"
           y="96.856224" />
        <g
           id="g8809"
           transform="matrix(0.40000004,0,0,0.40000004,31.145088,71.313927)">
          <path
             d="m 48.802505,135.94527 h -4.72456 c -1.304421,0 -2.362279,-1.05786 -2.362279,-2.36228 v -18.89824 c 0,-1.30442 1.057858,-2.36228 2.362279,-2.36228 h 4.72456 c 1.304421,0 2.362279,-1.05785 2.362279,-2.36228 0,-1.30442 -1.055643,-2.36228 -2.362279,-2.36228 h -4.72456 c -3.914002,0 -7.086839,3.17284 -7.086839,7.08684 v 18.89824 c 0,3.914 3.172837,7.08684 7.086839,7.08684 h 4.72456 c 1.304421,0 2.362279,-1.05786 2.362279,-2.36228 0,-1.30442 -1.055643,-2.36228 -2.362279,-2.36228 z m 25.291157,-13.47976 -9.449119,-9.44912 c -0.923504,-0.9235 -2.418384,-0.92202 -3.340411,0 -0.922765,0.92277 -0.922765,2.41765 0,3.34041 l 5.42217,5.41479 H 51.164784 c -1.306636,0 -2.362279,1.05565 -2.362279,2.36228 0,1.30664 1.056382,2.36228 2.362279,2.36228 h 15.561518 l -5.417002,5.417 c -0.922766,0.92277 -0.922766,2.41765 0,3.34042 0.922765,0.92276 2.417645,0.92276 3.340411,0 l 9.449118,-9.44912 c 0.917598,-0.92498 0.917598,-2.41617 -0.0052,-3.33894 z"
             id="path8376"
             style="stroke-width:0.0738212" />
        </g>
      </g>
      <g
         id="g9516"
         inkscape:export-filename="/media/stone/lexar/test.png"
         inkscape:export-xdpi="96"
         inkscape:export-ydpi="96">
        <rect
           style="fill:none;stroke:#000000;stroke-width:0.911348;stroke-miterlimit:4;stroke-dasharray:none"
           id="rect6410-92-9"
           width="48.222511"
           height="48.222511"
           x="93.523193"
           y="96.856224" />
        <path
           d="m 122.35885,114.35331 h -1.88976 c -0.52176,0 -0.94488,0.42313 -0.94488,0.94488 0,0.52175 0.42312,0.94488 0.94488,0.94488 h 1.88976 c 0.52175,0 0.94488,0.42313 0.94488,0.94488 v 7.55906 c 0,0.52175 -0.42313,0.94487 -0.94488,0.94487 h -1.88976 c -0.52176,0 -0.94488,0.42314 -0.94488,0.94489 0,0.52175 0.42312,0.94488 0.94488,0.94488 h 1.88976 c 1.56555,0 2.83465,-1.26909 2.83465,-2.83464 v -7.55906 c 0,-1.56555 -1.26969,-2.83464 -2.83465,-2.83464 z m -2.16732,5.94685 -3.77952,-3.77953 c -0.3694,-0.36939 -0.96733,-0.3688 -1.33613,0 -0.3691,0.3691 -0.3691,0.96702 0,1.33612 l 2.1688,2.16585 h -6.22441 c -0.52234,0 -0.94488,0.42225 -0.94488,0.94488 0,0.52264 0.42254,0.94488 0.94488,0.94488 h 6.22441 l -2.16673,2.16673 c -0.3691,0.3691 -0.3691,0.96703 0,1.33612 0.36909,0.3691 0.96702,0.3691 1.33612,0 l 3.77953,-3.77952 c 0.36702,-0.36998 0.36702,-0.96644 -0.002,-1.33553 z"
           id="path8385"
           style="stroke-width:0.0295275" />
      </g>
      <g
         id="g9520"
         inkscape:export-filename="/media/stone/lexar/test.png"
         inkscape:export-xdpi="96"
         inkscape:export-ydpi="96">
        <rect
           style="fill:none;stroke:#000000;stroke-width:0.911348;stroke-miterlimit:4;stroke-dasharray:none"
           id="rect6410-6-2"
           width="48.222511"
           height="48.222511"
           x="157.65704"
           y="96.856224" />
        <path
           d="m 189.32735,120.96748 c 0,0.64288 -0.52078,1.16329 -1.16294,1.16329 h -5.23319 v 5.23319 c 0,0.64288 -0.52076,1.16257 -1.16292,1.16257 -0.64216,0 -1.16293,-0.51969 -1.16293,-1.16257 v -5.23319 h -5.23319 c -0.64216,0 -1.16294,-0.52041 -1.16294,-1.16329 0,-0.64288 0.52078,-1.16257 1.16294,-1.16257 h 5.23319 v -5.23319 c 0,-0.64288 0.52077,-1.1633 1.16293,-1.1633 0.64216,0 1.16292,0.52042 1.16292,1.1633 v 5.23319 h 5.23319 c 0.64325,-3.6e-4 1.16294,0.51932 1.16294,1.16257 z"
           id="path8394"
           style="stroke-width:0.0363416" />
      </g>
      <g
         id="g9524"
         inkscape:export-filename="/media/stone/lexar/test.png"
         inkscape:export-xdpi="96"
         inkscape:export-ydpi="96">
        <rect
           style="fill:none;stroke:#000000;stroke-width:0.911348;stroke-miterlimit:4;stroke-dasharray:none"
           id="rect6410-2-3"
           width="48.222511"
           height="48.222511"
           x="221.79091"
           y="96.856224" />
        <path
           d="m 252.29829,122.13041 h -12.79224 c -0.64289,0 -1.16294,-0.52041 -1.16294,-1.16329 0,-0.64288 0.52005,-1.16257 1.16294,-1.16257 h 12.79224 c 0.64288,0 1.16293,0.51969 1.16293,1.16257 0,0.64288 -0.51969,1.16329 -1.16293,1.16329 z"
           id="path8403"
           style="stroke-width:0.0363416" />
      </g>
      <g
         id="g9528"
         inkscape:export-filename="/media/stone/lexar/test.png"
         inkscape:export-xdpi="96"
         inkscape:export-ydpi="96">
        <rect
           style="fill:none;stroke:#000000;stroke-width:0.911348;stroke-miterlimit:4;stroke-dasharray:none"
           id="rect6410-9-7"
           width="48.222511"
           height="48.222511"
           x="285.92477"
           y="96.856224" />
        <path
           d="m 310.03603,118.13283 c -1.56792,0 -2.83465,1.26673 -2.83465,2.83465 0,1.56791 1.26733,2.83464 2.83465,2.83464 1.56732,0 2.83464,-1.26732 2.83464,-2.83464 0,-1.56732 -1.26673,-2.83465 -2.83464,-2.83465 z m 0,3.77953 c -0.52264,0 -0.94488,-0.42224 -0.94488,-0.94488 0,-0.52264 0.42312,-0.94488 0.94488,-0.94488 0.52175,0 0.94488,0.42312 0.94488,0.94488 0,0.52175 -0.42224,0.94488 -0.94488,0.94488 z m 0,-8.50394 c -4.1752,0 -7.55906,3.38386 -7.55906,7.55906 0,4.17519 3.38386,7.55905 7.55906,7.55905 4.17519,0 7.55905,-3.38386 7.55905,-7.55905 0,-4.1752 -3.38386,-7.55906 -7.55905,-7.55906 z m 0,11.33858 c -2.08908,0 -3.77953,-1.69045 -3.77953,-3.77952 0,-2.08908 1.69045,-3.77953 3.77953,-3.77953 2.08907,0 3.77952,1.69045 3.77952,3.77953 0,2.08907 -1.68897,3.77952 -3.77952,3.77952 z"
           id="path8412"
           style="stroke-width:0.0295276" />
      </g>
      <g
         id="g9532"
         inkscape:export-filename="/media/stone/lexar/test.png"
         inkscape:export-xdpi="96"
         inkscape:export-ydpi="96">
        <rect
           style="fill:none;stroke:#000000;stroke-width:0.911348;stroke-miterlimit:4;stroke-dasharray:none"
           id="rect6410-8-5"
           width="48.222511"
           height="48.222511"
           x="350.05862"
           y="96.856224" />
        <path
           d="m 380.82342,119.35479 c 0.56299,0.34646 0.90551,0.9567 0.90551,1.61418 0,0.65748 -0.34252,1.26772 -0.90551,1.57874 l -11.3374,6.92913 c -0.58346,0.38977 -1.31378,0.40551 -1.90984,0.0709 -0.59618,-0.33465 -0.96536,-0.96457 -0.96536,-1.64961 v -13.85827 c 0,-0.68346 0.36918,-1.31378 0.96536,-1.64842 0.59606,-0.33425 1.32638,-0.32048 1.90984,0.0358 z"
           id="path8421"
           style="stroke-width:0.0393701" />
      </g>
      <g
         id="g9536"
         transform="translate(1.5230167e-5)"
         inkscape:export-filename="/media/stone/lexar/test.png"
         inkscape:export-xdpi="96"
         inkscape:export-ydpi="96">
        <rect
           style="fill:none;stroke:#000000;stroke-width:0.911348;stroke-miterlimit:4;stroke-dasharray:none"
           id="rect6410-27"
           width="48.222511"
           height="48.222511"
           x="414.19247"
           y="96.856224" />
        <path
           d="m 445.86279,115.94582 v 10.04331 c 0,1.39173 -1.12796,2.51968 -2.51969,2.51968 h -10.07874 c -1.39173,0 -2.51968,-1.12795 -2.51968,-2.51968 v -10.04331 c 0,-1.39173 1.12795,-2.51968 2.51968,-2.51968 h 10.07874 c 1.38976,0 2.51969,1.12795 2.51969,2.51968 z"
           id="path8430"
           style="stroke-width:0.0393701" />
      </g>
      <g
         id="g9543"
         inkscape:export-filename="/media/stone/lexar/test.png"
         inkscape:export-xdpi="96"
         inkscape:export-ydpi="96">
        <rect
           style="fill:none;stroke:#000000;stroke-width:0.911348;stroke-miterlimit:4;stroke-dasharray:none"
           id="rect6410-5-0-2"
           width="48.222511"
           height="48.222511"
           x="29.389332"
           y="160.99008" />
        <g
           id="g8850"
           transform="matrix(0.4,0,0,0.4,31.145091,109.74911)">
          <g
             id="g8845">
            <g
               id="g8841">
              <path
                 d="m 74.67801,181.37886 c 0.258453,0.67355 0.03916,1.43324 -0.493409,1.92665 l -3.391208,3.08576 c 0.08615,0.65005 0.133142,1.31576 0.133142,1.9893 0,0.67355 -0.04699,1.33926 -0.133142,1.9893 l 3.391208,3.08577 c 0.532569,0.49341 0.751862,1.2531 0.493409,1.92664 -0.344603,0.932 -0.759693,1.83267 -1.229606,2.68634 l -0.368099,0.63439 c -0.516905,0.8615 -1.096465,1.67602 -1.730848,2.45138 -0.469913,0.55606 -1.229607,0.75186 -1.918813,0.53257 l -4.362363,-1.39408 c -1.049474,0.80668 -2.27908,1.48023 -3.446032,1.99713 l -0.978986,4.47201 c -0.156638,0.70487 -0.70487,1.20611 -1.425404,1.39408 -1.080801,0.18013 -2.19293,0.27411 -3.399041,0.27411 -1.065137,0 -2.177265,-0.094 -3.258066,-0.27411 -0.720535,-0.18797 -1.268767,-0.68921 -1.425405,-1.39408 l -0.978986,-4.47201 c -1.237439,-0.5169 -2.396559,-1.19045 -3.446032,-1.99713 l -4.35923,1.39408 c -0.692339,0.21929 -1.455948,0.0235 -1.919596,-0.53257 -0.635167,-0.77536 -1.214727,-1.58988 -1.731631,-2.45138 l -0.366533,-0.63439 c -0.475396,-0.85367 -0.888919,-1.75434 -1.235872,-2.68634 -0.253753,-0.67354 -0.03994,-1.43323 0.497325,-1.92664 l 3.388076,-3.08577 c -0.08615,-0.65004 -0.130793,-1.31575 -0.130793,-1.9893 0,-0.67354 0.04464,-1.33925 0.130793,-1.9893 l -3.388076,-3.08576 c -0.537268,-0.49341 -0.751078,-1.24527 -0.497325,-1.92665 0.346953,-0.93199 0.76126,-1.83266 1.235872,-2.68633 l 0.365749,-0.63439 c 0.517688,-0.86151 1.097248,-1.67602 1.732415,-2.44746 0.463648,-0.55998 1.227257,-0.75421 1.919596,-0.53336 l 4.35923,1.39095 c 1.049473,-0.80982 2.208593,-1.48336 3.446032,-1.99478 l 0.978986,-4.47201 c 0.156638,-0.71114 0.70487,-1.27582 1.425405,-1.39565 1.080801,-0.18083 2.192929,-0.2749 3.328553,-0.2749 1.135624,0 2.247753,0.0941 3.328554,0.2749 0.720534,0.11983 1.268766,0.68451 1.425404,1.39565 l 0.978986,4.47201 c 1.166952,0.51142 2.396558,1.18496 3.446032,1.99478 l 4.362363,-1.39095 c 0.689206,-0.22085 1.4489,-0.0266 1.918813,0.53336 0.634383,0.77144 1.213943,1.58595 1.730848,2.44746 l 0.368099,0.63439 c 0.469913,0.85367 0.885003,1.75434 1.229606,2.68633 z m -18.788705,13.26723 c 3.461696,0 6.265512,-2.80382 6.265512,-6.336 0,-3.39121 -2.803816,-6.26552 -6.265512,-6.26552 -3.461696,0 -6.265513,2.87431 -6.265513,6.26552 0,3.53218 2.803817,6.336 6.265513,6.336 z"
                 id="path8439"
                 style="stroke-width:0.0783189" />
            </g>
          </g>
        </g>
      </g>
      <g
         id="g9547"
         inkscape:export-filename="/media/stone/lexar/test.png"
         inkscape:export-xdpi="96"
         inkscape:export-ydpi="96">
        <rect
           style="fill:none;stroke:#000000;stroke-width:0.911348;stroke-miterlimit:4;stroke-dasharray:none"
           id="rect6410-92-9-6"
           width="48.222511"
           height="48.222511"
           x="93.523193"
           y="160.99008" />
        <path
           d="m 117.63445,192.66039 c -4.1752,0 -7.55906,-3.38386 -7.55906,-7.55905 0,-4.1752 3.38386,-7.55906 7.55906,-7.55906 4.17519,0 7.55905,3.38386 7.55905,7.55906 0,4.17519 -3.38386,7.55905 -7.55905,7.55905 z m -0.70866,-7.55905 c 0,0.23622 0.1181,0.45768 0.31594,0.56397 l 2.83464,1.88977 c 0.32481,0.24212 0.76477,0.15354 0.9567,-0.17126 0.24213,-0.3248 0.15354,-0.76476 -0.17127,-0.98327 l -2.51869,-1.67717 v -3.63779 c 0,-0.39272 -0.31594,-0.70866 -0.73524,-0.70866 -0.36614,0 -0.70866,0.31594 -0.70866,0.70866 z"
           id="path8585"
           style="stroke-width:0.0295275" />
      </g>
      <g
         id="g9555"
         inkscape:export-filename="/media/stone/lexar/test.png"
         inkscape:export-xdpi="96"
         inkscape:export-ydpi="96">
        <rect
           style="fill:none;stroke:#000000;stroke-width:0.911348;stroke-miterlimit:4;stroke-dasharray:none"
           id="rect6410-2-3-9"
           width="48.222511"
           height="48.222511"
           x="221.79091"
           y="160.99008" />
        <path
           d="m 243.74244,179.16207 c 0,-0.8946 0.72553,-1.61979 1.61979,-1.61979 h 1.07986 c 0.89427,0 1.6198,0.72519 1.6198,1.61979 v 11.87852 c 0,0.89426 -0.72553,1.6198 -1.6198,1.6198 h -1.07986 c -0.89426,0 -1.61979,-0.72554 -1.61979,-1.6198 z m -5.39933,6.47919 c 0,-0.89426 0.7252,-1.61979 1.6198,-1.61979 h 1.07986 c 0.89427,0 1.6198,0.72553 1.6198,1.61979 v 5.39933 c 0,0.89426 -0.72553,1.6198 -1.6198,1.6198 h -1.07986 c -0.8946,0 -1.6198,-0.72554 -1.6198,-1.6198 z m 13.49831,-5.93925 c 0.89426,0 1.6198,0.72553 1.6198,1.6198 v 9.71878 c 0,0.89426 -0.72554,1.6198 -1.6198,1.6198 h -1.07986 c -0.89427,0 -1.6198,-0.72554 -1.6198,-1.6198 v -9.71878 c 0,-0.89427 0.72553,-1.6198 1.6198,-1.6198 z"
           id="path8603"
           style="stroke-width:0.0337458" />
      </g>
      <g
         id="g9551"
         inkscape:export-filename="/media/stone/lexar/test.png"
         inkscape:export-xdpi="96"
         inkscape:export-ydpi="96">
        <rect
           style="fill:none;stroke:#000000;stroke-width:0.911348;stroke-miterlimit:4;stroke-dasharray:none"
           id="rect6410-6-2-8"
           width="48.222511"
           height="48.222511"
           x="157.65704"
           y="160.99008" />
        <path
           d="m 175.15412,178.48717 c 0.52175,0 0.94488,0.42313 0.94488,0.94488 v 9.92126 c 0,0.25984 0.21142,0.47244 0.47244,0.47244 h 11.81102 c 0.52264,0 0.94489,0.42224 0.94489,0.94488 0,0.52264 -0.42225,0.94488 -0.94489,0.94488 h -11.81102 c -1.30453,0 -2.3622,-1.05709 -2.3622,-2.3622 v -9.92126 c 0,-0.52175 0.42313,-0.94488 0.94488,-0.94488 z m 2.83465,2.83464 c 0,-0.52263 0.42224,-0.94488 0.94488,-0.94488 h 2.83465 c 0.52263,0 0.94488,0.42225 0.94488,0.94488 0,0.52264 -0.42225,0.94489 -0.94488,0.94489 h -2.83465 c -0.52264,0 -0.94488,-0.42225 -0.94488,-0.94489 z m 6.61417,1.88977 c 0.52263,0 0.94488,0.42224 0.94488,0.94488 0,0.52264 -0.42225,0.94488 -0.94488,0.94488 h -3.77952 c -0.52264,0 -0.94489,-0.42224 -0.94489,-0.94488 0,-0.52264 0.42225,-0.94488 0.94489,-0.94488 z m 2.83464,2.83465 c 0.52264,0 0.94488,0.42224 0.94488,0.94488 0,0.52264 -0.42224,0.94488 -0.94488,0.94488 h -1.88976 c -0.52264,0 -0.94488,-0.42224 -0.94488,-0.94488 0,-0.52264 0.42224,-0.94488 0.94488,-0.94488 z"
           id="path8692"
           style="stroke-width:0.0295275" />
      </g>
      <g
         id="g9563"
         inkscape:export-filename="/media/stone/lexar/test.png"
         inkscape:export-xdpi="96"
         inkscape:export-ydpi="96">
        <rect
           style="fill:none;stroke:#000000;stroke-width:0.911348;stroke-miterlimit:4;stroke-dasharray:none"
           id="rect6410-9-7-7"
           width="48.222511"
           height="48.222511"
           x="285.92477"
           y="160.99008" />
        <path
           d="m 306.2565,175.0226 c 0.69685,0 1.25984,0.56418 1.25984,1.25985 v 3.77952 h -2.51968 v -3.77952 c 0,-0.69567 0.56417,-1.25985 1.25984,-1.25985 z m 7.55905,0 c 0.69685,0 1.25984,0.56418 1.25984,1.25985 v 3.77952 h -2.51968 v -3.77952 c 0,-0.69567 0.563,-1.25985 1.25984,-1.25985 z m 2.51969,6.29922 c 0.69685,0 1.25984,0.56299 1.25984,1.25984 0,0.69685 -0.56299,1.25984 -1.25984,1.25984 v 1.25984 c 0,3.04724 -2.16535,5.55511 -5.03937,6.17323 v 3.90551 h -2.51968 v -3.90551 c -2.8752,-0.61812 -5.03937,-3.12599 -5.03937,-6.17323 v -1.25984 c -0.69567,0 -1.25985,-0.56299 -1.25985,-1.25984 0,-0.69685 0.56418,-1.25984 1.25985,-1.25984 z"
           id="path8701"
           style="stroke-width:0.0393701" />
      </g>
      <g
         id="g9559"
         inkscape:export-filename="/media/stone/lexar/test.png"
         inkscape:export-xdpi="96"
         inkscape:export-ydpi="96">
        <rect
           style="fill:none;stroke:#000000;stroke-width:0.911348;stroke-miterlimit:4;stroke-dasharray:none"
           id="rect6410-8-5-3"
           width="48.222511"
           height="48.222511"
           x="350.05862"
           y="160.99008" />
        <path
           d="m 377.85491,190.38205 h -3.59055 c -0.4696,0 -0.85039,-0.38079 -0.85039,-0.8504 v -8.22047 h -2.26772 v 3.68504 c 0,0.46961 -0.38078,0.85039 -0.85039,0.85039 h -2.95039 c -0.39615,0 -0.73465,-0.33779 -0.73465,-0.7559 0,-0.41811 0.3385,-0.73465 0.73465,-0.73465 h 2.28897 v -3.68504 c 0,-0.4696 0.38079,-0.85039 0.8504,-0.85039 h 3.59055 c 0.46961,0 0.85039,0.38079 0.85039,0.85039 v 8.22047 h 2.26772 v -3.68503 c 0,-0.46961 0.38078,-0.8504 0.85039,-0.8504 h 2.92914 c 0.4181,-0.0212 0.7559,0.31654 0.7559,0.73465 0,0.41811 -0.3385,0.7559 -0.73465,0.7559 h -2.28897 v 3.68504 c 0,0.47008 -0.38032,0.8504 -0.8504,0.8504 z"
           id="path8766"
           style="stroke-width:0.0236221" />
      </g>
      <g
         id="g9567"
         transform="translate(1.5230167e-5)"
         inkscape:export-filename="/media/stone/lexar/test.png"
         inkscape:export-xdpi="96"
         inkscape:export-ydpi="96">
        <rect
           style="fill:none;stroke:#000000;stroke-width:0.911348;stroke-miterlimit:4;stroke-dasharray:none"
           id="rect6410-27-2"
           width="48.222511"
           height="48.222511"
           x="414.19247"
           y="160.99008" />
        <path
           d="m 443.97302,178.48717 c 1.04232,0 1.88977,0.84597 1.88977,1.88976 v 9.44882 c 0,1.04232 -0.84745,1.88976 -1.88977,1.88976 h -11.33858 c -1.0438,0 -1.88976,-0.84744 -1.88976,-1.88976 v -9.44882 c 0,-1.04379 0.84596,-1.88976 1.88976,-1.88976 z m -8.74016,1.88976 h -2.59842 v 1.88977 h 2.59842 z m 1.65355,1.88977 h 2.59842 v -1.88977 h -2.59842 z m 7.08661,-1.88977 h -2.59842 v 1.88977 h 2.59842 z m -11.33858,5.6693 h 2.59842 v -1.88977 h -2.59842 z m 6.85039,-1.88977 h -2.59842 v 1.88977 h 2.59842 z m 1.88977,1.88977 h 2.59842 v -1.88977 h -2.59842 z m -6.14174,1.88976 h -2.59842 v 1.88976 h 2.59842 z m 1.65355,1.88976 h 2.59842 v -1.88976 h -2.59842 z m 7.08661,-1.88976 h -2.59842 v 1.88976 h 2.59842 z"
           id="path8775"
           style="stroke-width:0.0295275" />
      </g>
    </g>
  </g>
</svg>
